<svg version="1.1" id="Layer_1" xmlns="http://www.w3.org/2000/svg" xmlns:xlink="http://www.w3.org/1999/xlink" x="0px" y="0px"
	 width="100%" viewBox="86 93 332 327" enable-background="new 0 0 500 500" xml:space="preserve">
<path fill="#000000" opacity="0.000000" stroke="none" 
	d="
M278.000000,501.000000 
	C185.333359,501.000000 93.166710,501.000000 1.000049,501.000000 
	C1.000033,334.333405 1.000033,167.666794 1.000016,1.000139 
	C167.666565,1.000093 334.333130,1.000093 500.999756,1.000046 
	C500.999847,167.666519 500.999847,334.333038 500.999939,500.999786 
	C426.833344,501.000000 352.666656,501.000000 278.000000,501.000000 
M293.981293,114.118713 
	C293.998047,111.461296 294.061401,108.803185 294.021698,106.146606 
	C293.945221,101.029549 291.384094,98.146164 286.817291,97.945885 
	C281.011902,97.691284 277.595581,100.506348 277.281067,106.255493 
	C277.031860,110.809929 277.230896,115.388885 277.230896,119.767853 
	C271.557983,119.767853 266.843933,119.767853 262.263641,119.767853 
	C261.854370,114.354729 261.410431,109.432457 261.128845,104.500908 
	C260.827576,99.225677 257.270050,98.073807 252.980576,97.990959 
	C248.300293,97.900574 245.614700,100.256691 245.059494,105.629227 
	C245.009155,106.053215 244.958817,106.477211 244.228867,107.437279 
	C244.219315,111.630257 244.209763,115.823235 243.614014,120.316933 
	C243.420776,120.421265 243.227539,120.525589 242.134293,120.347748 
	C237.993500,120.198700 232.202805,121.624527 230.154282,119.478386 
	C227.894897,117.111305 228.988632,111.470497 228.767349,107.248077 
	C228.423996,100.696144 224.390198,95.065956 214.439728,99.425446 
	C213.537415,101.335762 212.108444,103.176781 211.846008,105.171280 
	C211.350204,108.939468 211.752762,112.823364 211.297333,116.600739 
	C211.139038,117.913696 209.642441,119.999916 208.593170,120.105583 
	C204.515228,120.516304 200.371399,120.272858 195.863586,120.272858 
	C195.863586,115.791435 196.010254,111.834213 195.831116,107.891800 
	C195.519470,101.033577 192.059052,97.595032 186.152847,97.989014 
	C181.496155,98.299644 178.469345,101.892296 178.271347,107.640816 
	C178.130814,111.721054 178.244125,115.810043 178.244125,120.301231 
	C165.960129,120.301231 154.476013,119.992416 143.015808,120.383553 
	C130.219940,120.820274 121.713211,125.993286 117.260017,138.192917 
	C116.000877,141.642365 116.149391,145.695969 116.097717,149.478561 
	C115.955246,159.907318 116.048470,170.339279 116.048470,181.083069 
	C111.515778,181.083069 107.681725,180.818390 103.906548,181.175705 
	C101.369530,181.415817 98.592796,182.035141 96.502167,183.382812 
	C93.523674,185.302811 92.317520,188.512390 93.423004,192.134598 
	C94.771332,196.552475 98.226578,198.393616 102.470734,198.645889 
	C106.867584,198.907227 111.292053,198.704056 115.688080,198.704056 
	C115.688080,204.290909 115.688080,209.026505 115.688080,214.182388 
	C111.686989,214.182388 108.019760,213.918304 104.412384,214.269318 
	C101.722984,214.531021 98.243980,214.792374 96.683777,216.492249 
	C94.729301,218.621719 93.234283,222.373398 93.600151,225.153931 
	C94.165352,229.449326 97.967461,231.622559 102.355042,231.796280 
	C106.783165,231.971619 111.223640,231.834930 115.726395,231.834930 
	C115.726395,237.297073 115.726395,242.036728 115.726395,246.648865 
	C115.102013,246.901520 114.805611,247.122696 114.505714,247.127548 
	C110.343193,247.194916 106.178001,247.163513 102.017876,247.295364 
	C97.008514,247.454147 93.079590,251.399902 93.131622,256.067474 
	C93.185539,260.902985 97.003044,264.473480 102.217896,264.509613 
	C106.656929,264.540375 111.096344,264.515961 115.729050,264.515961 
	C115.729050,270.156677 115.729050,275.060150 115.729050,280.352692 
	C110.775803,280.352692 106.139282,280.263245 101.507782,280.377625 
	C96.773170,280.494507 93.137138,284.376373 93.129204,289.090302 
	C93.121246,293.815308 97.056946,297.704193 101.848549,297.704803 
	C106.448830,297.705353 111.049110,297.704895 115.688492,297.704895 
	C115.688492,303.578796 115.688492,308.635529 115.688492,314.022919 
	C110.512344,314.022919 105.643768,313.579651 100.917648,314.207977 
	C98.516670,314.527191 95.570671,316.253967 94.266846,318.254242 
	C90.784088,323.597351 95.239212,330.529968 102.042824,330.787140 
	C106.616516,330.960052 111.202042,330.820068 116.049019,330.820068 
	C116.049019,342.499573 116.301590,353.322693 115.990013,364.129517 
	C115.518883,380.470825 129.749802,390.745575 142.014938,390.031830 
	C150.319290,389.548615 158.674286,389.935760 167.006638,389.934143 
	C170.614624,389.933441 174.222626,389.934021 177.770401,389.934021 
	C178.251282,396.200287 178.423660,401.820831 179.191284,407.358856 
	C179.782669,411.625336 183.218216,413.387329 187.112946,413.533295 
	C190.942612,413.676819 194.121262,411.735260 194.769318,407.813507 
	C195.517746,403.284363 195.310272,398.604828 195.806549,394.021851 
	C195.958969,392.614288 196.965118,390.206665 197.741928,390.139984 
	C202.138382,389.762634 206.583939,389.957489 211.335739,389.957489 
	C211.335739,394.883911 211.148087,399.041656 211.407959,403.171204 
	C211.557602,405.549194 211.878601,408.234192 213.103958,410.154785 
	C215.118500,413.312256 218.490814,414.288849 222.201965,413.160339 
	C226.366592,411.893951 228.423904,408.812775 228.619827,404.666656 
	C228.844620,399.910095 228.671997,395.134796 228.671997,389.934296 
	C231.738647,389.934296 234.036942,389.934296 236.335236,389.934296 
	C238.776978,389.934296 241.218735,389.934296 244.174835,389.934296 
	C244.174835,394.682953 244.030151,398.817749 244.202927,402.939178 
	C244.656509,413.759033 252.645111,415.323181 257.866760,411.966064 
	C261.533112,409.608917 261.542755,405.912628 261.752106,402.355896 
	C261.990906,398.298462 261.807373,394.216156 261.807373,390.347412 
	C267.483765,390.347412 272.228149,390.347412 277.050903,390.347412 
	C277.050903,395.084747 276.949738,399.414368 277.075653,403.737335 
	C277.246460,409.602142 280.984589,413.624969 286.006409,413.577026 
	C291.278778,413.526703 293.949127,410.303864 294.002380,403.838531 
	C294.040100,399.257050 294.009674,394.675018 294.009674,390.270508 
	C299.808624,390.270508 304.734985,390.270508 310.096344,390.270508 
	C310.096344,395.243896 309.912598,399.888306 310.143799,404.511993 
	C310.419647,410.027557 314.488922,413.787903 319.454529,413.520660 
	C324.374847,413.255829 326.949554,410.164459 327.017365,404.305603 
	C327.070770,399.686310 327.028076,395.065918 327.028076,390.686707 
	C327.847015,390.318481 328.136139,390.075562 328.426453,390.074158 
	C340.755829,390.014313 353.085266,389.979492 365.414734,389.934143 
	C378.965790,389.884308 389.869751,378.944733 389.921234,365.298615 
	C389.957703,355.633240 389.913330,345.967590 389.933838,336.302124 
	C389.937561,334.548248 390.080414,332.794678 390.168396,330.832031 
	C392.944336,330.832031 395.103973,330.833923 397.263611,330.831482 
	C399.596649,330.828857 401.934814,330.920135 404.261688,330.797913 
	C410.002441,330.496338 413.143921,327.128296 413.014252,321.551331 
	C412.898376,316.567474 409.933838,314.051971 404.109467,314.030701 
	C399.509949,314.013885 394.910278,314.027344 390.303589,314.027344 
	C390.303589,308.251770 390.303589,303.187317 390.303589,297.710480 
	C395.324097,297.710480 399.969147,297.784760 404.610840,297.690704 
	C409.800842,297.585571 412.906616,294.399750 413.033569,289.254944 
	C413.166504,283.867584 409.879181,280.561615 403.922668,280.373749 
	C399.364624,280.229950 394.798401,280.345154 390.272522,280.345154 
	C390.272522,274.667664 390.272522,269.919525 390.272522,264.507721 
	C395.407654,264.507721 400.203094,264.606354 404.992615,264.480774 
	C410.066315,264.347778 412.854187,261.419952 413.004822,256.368500 
	C413.171265,250.789017 410.099548,247.509140 404.231628,247.314697 
	C399.630798,247.162216 395.020905,247.284103 390.227173,247.284103 
	C390.227173,241.828857 390.227173,237.095322 390.227173,232.284149 
	C395.929718,231.860107 401.374847,231.725296 406.733856,230.974991 
	C411.389526,230.323151 413.186615,226.977890 412.981995,222.450562 
	C412.787537,218.147278 410.363953,215.639297 406.300171,215.096100 
	C400.969177,214.383484 395.579041,214.112869 390.320801,213.661285 
	C390.320801,208.568863 390.320801,203.831085 390.320801,198.732040 
	C395.033783,198.732040 399.390839,199.091522 403.648621,198.596649 
	C406.186371,198.301666 409.631775,197.315536 410.759491,195.471970 
	C412.278168,192.989166 412.945099,189.113525 412.189606,186.319061 
	C411.099884,182.288315 406.895386,181.294495 403.002502,181.123688 
	C398.756531,180.937408 394.496063,181.081390 389.919708,181.081390 
	C389.919708,171.161591 389.930115,162.014877 389.914764,152.868195 
	C389.908325,149.037155 390.304230,145.135574 389.724884,141.388565 
	C388.034668,130.456604 377.746948,120.428009 365.252380,120.325943 
	C352.986816,120.225746 340.719788,120.304115 327.617584,120.304115 
	C327.617584,115.500114 327.612915,111.380646 327.618652,107.261192 
	C327.627411,100.956932 323.311096,97.105957 317.173126,98.059975 
	C312.088470,98.850273 310.558350,102.699028 310.230072,107.039200 
	C309.908661,111.288467 310.160095,115.581070 310.160095,119.910431 
	C304.318085,119.910431 299.259033,119.910431 294.180328,119.910431 
	C294.048553,118.025650 293.944214,116.533234 293.981293,114.118713 
z"/>
<path fill="#7A9A61" opacity="1.000000" stroke="none" 
	d="
M244.908447,106.901199 
	C244.958817,106.477211 245.009155,106.053215 245.368896,105.103081 
	C248.517349,102.099525 251.114929,98.555847 255.559235,100.782852 
	C259.790222,102.902977 259.944275,106.853157 259.727264,111.102852 
	C259.206146,121.308502 260.223022,122.177742 270.772430,121.953804 
	C271.603149,121.936172 272.433533,121.894371 273.263550,121.853210 
	C277.038879,121.665955 279.095154,119.901871 278.971741,115.899101 
	C278.884735,113.076942 278.865814,110.236183 279.086090,107.424866 
	C279.428925,103.049988 282.242279,100.464417 286.111664,100.636299 
	C290.585327,100.835014 291.921387,103.471863 292.105499,107.574890 
	C292.218109,110.084427 293.231201,112.553543 293.839844,115.040810 
	C293.944214,116.533234 294.048553,118.025650 294.180328,119.910431 
	C299.259033,119.910431 304.318085,119.910431 310.160095,119.910431 
	C310.160095,115.581070 309.908661,111.288467 310.230072,107.039200 
	C310.558350,102.699028 312.088470,98.850273 317.173126,98.059975 
	C323.311096,97.105957 327.627411,100.956932 327.618652,107.261192 
	C327.612915,111.380646 327.617584,115.500114 327.617584,120.304115 
	C340.719788,120.304115 352.986816,120.225746 365.252380,120.325943 
	C377.746948,120.428009 388.034668,130.456604 389.724884,141.388565 
	C390.304230,145.135574 389.908325,149.037155 389.914764,152.868195 
	C389.930115,162.014877 389.919708,171.161591 389.919708,181.081390 
	C394.496063,181.081390 398.756531,180.937408 403.002502,181.123688 
	C406.895386,181.294495 411.099884,182.288315 412.189606,186.319061 
	C412.945099,189.113525 412.278168,192.989166 410.759491,195.471970 
	C409.631775,197.315536 406.186371,198.301666 403.648621,198.596649 
	C399.390839,199.091522 395.033783,198.732040 390.320801,198.732040 
	C390.320801,203.831085 390.320801,208.568863 390.320801,213.661285 
	C395.579041,214.112869 400.969177,214.383484 406.300171,215.096100 
	C410.363953,215.639297 412.787537,218.147278 412.981995,222.450562 
	C413.186615,226.977890 411.389526,230.323151 406.733856,230.974991 
	C401.374847,231.725296 395.929718,231.860107 390.227173,232.284149 
	C390.227173,237.095322 390.227173,241.828857 390.227173,247.284103 
	C395.020905,247.284103 399.630798,247.162216 404.231628,247.314697 
	C410.099548,247.509140 413.171265,250.789017 413.004822,256.368500 
	C412.854187,261.419952 410.066315,264.347778 404.992615,264.480774 
	C400.203094,264.606354 395.407654,264.507721 390.272522,264.507721 
	C390.272522,269.919525 390.272522,274.667664 390.272522,280.345154 
	C394.798401,280.345154 399.364624,280.229950 403.922668,280.373749 
	C409.879181,280.561615 413.166504,283.867584 413.033569,289.254944 
	C412.906616,294.399750 409.800842,297.585571 404.610840,297.690704 
	C399.969147,297.784760 395.324097,297.710480 390.303589,297.710480 
	C390.303589,303.187317 390.303589,308.251770 390.303589,314.027344 
	C394.910278,314.027344 399.509949,314.013885 404.109467,314.030701 
	C409.933838,314.051971 412.898376,316.567474 413.014252,321.551331 
	C413.143921,327.128296 410.002441,330.496338 404.261688,330.797913 
	C401.934814,330.920135 399.596649,330.828857 397.263611,330.831482 
	C395.103973,330.833923 392.944336,330.832031 390.168396,330.832031 
	C390.080414,332.794678 389.937561,334.548248 389.933838,336.302124 
	C389.913330,345.967590 389.957703,355.633240 389.921234,365.298615 
	C389.869751,378.944733 378.965790,389.884308 365.414734,389.934143 
	C353.085266,389.979492 340.755829,390.014313 328.426453,390.074158 
	C328.136139,390.075562 327.847015,390.318481 327.028076,390.686707 
	C327.028076,395.065918 327.070770,399.686310 327.017365,404.305603 
	C326.949554,410.164459 324.374847,413.255829 319.454529,413.520660 
	C314.488922,413.787903 310.419647,410.027557 310.143799,404.511993 
	C309.912598,399.888306 310.096344,395.243896 310.096344,390.270508 
	C304.734985,390.270508 299.808624,390.270508 294.009674,390.270508 
	C294.009674,394.675018 294.040100,399.257050 294.002380,403.838531 
	C293.949127,410.303864 291.278778,413.526703 286.006409,413.577026 
	C280.984589,413.624969 277.246460,409.602142 277.075653,403.737335 
	C276.949738,399.414368 277.050903,395.084747 277.050903,390.347412 
	C272.228149,390.347412 267.483765,390.347412 261.807373,390.347412 
	C261.807373,394.216156 261.990906,398.298462 261.752106,402.355896 
	C261.542755,405.912628 261.533112,409.608917 257.866760,411.966064 
	C252.645111,415.323181 244.656509,413.759033 244.202927,402.939178 
	C244.030151,398.817749 244.174835,394.682953 244.174835,389.934296 
	C241.218735,389.934296 238.776978,389.934296 236.335236,389.934296 
	C234.036942,389.934296 231.738647,389.934296 228.671997,389.934296 
	C228.671997,395.134796 228.844620,399.910095 228.619827,404.666656 
	C228.423904,408.812775 226.366592,411.893951 222.201965,413.160339 
	C218.490814,414.288849 215.118500,413.312256 213.103958,410.154785 
	C211.878601,408.234192 211.557602,405.549194 211.407959,403.171204 
	C211.148087,399.041656 211.335739,394.883911 211.335739,389.957489 
	C206.583939,389.957489 202.138382,389.762634 197.741928,390.139984 
	C196.965118,390.206665 195.958969,392.614288 195.806549,394.021851 
	C195.310272,398.604828 195.517746,403.284363 194.769318,407.813507 
	C194.121262,411.735260 190.942612,413.676819 187.112946,413.533295 
	C183.218216,413.387329 179.782669,411.625336 179.191284,407.358856 
	C178.423660,401.820831 178.251282,396.200287 177.770401,389.934021 
	C174.222626,389.934021 170.614624,389.933441 167.006638,389.934143 
	C158.674286,389.935760 150.319290,389.548615 142.014938,390.031830 
	C129.749802,390.745575 115.518883,380.470825 115.990013,364.129517 
	C116.301590,353.322693 116.049019,342.499573 116.049019,330.820068 
	C111.202042,330.820068 106.616516,330.960052 102.042824,330.787140 
	C95.239212,330.529968 90.784088,323.597351 94.266846,318.254242 
	C95.570671,316.253967 98.516670,314.527191 100.917648,314.207977 
	C105.643768,313.579651 110.512344,314.022919 115.688492,314.022919 
	C115.688492,308.635529 115.688492,303.578796 115.688492,297.704895 
	C111.049110,297.704895 106.448830,297.705353 101.848549,297.704803 
	C97.056946,297.704193 93.121246,293.815308 93.129204,289.090302 
	C93.137138,284.376373 96.773170,280.494507 101.507782,280.377625 
	C106.139282,280.263245 110.775803,280.352692 115.729050,280.352692 
	C115.729050,275.060150 115.729050,270.156677 115.729050,264.515961 
	C111.096344,264.515961 106.656929,264.540375 102.217896,264.509613 
	C97.003044,264.473480 93.185539,260.902985 93.131622,256.067474 
	C93.079590,251.399902 97.008514,247.454147 102.017876,247.295364 
	C106.178001,247.163513 110.343193,247.194916 114.505714,247.127548 
	C114.805611,247.122696 115.102013,246.901520 115.726395,246.648865 
	C115.726395,242.036728 115.726395,237.297073 115.726395,231.834930 
	C111.223640,231.834930 106.783165,231.971619 102.355042,231.796280 
	C97.967461,231.622559 94.165352,229.449326 93.600151,225.153931 
	C93.234283,222.373398 94.729301,218.621719 96.683777,216.492249 
	C98.243980,214.792374 101.722984,214.531021 104.412384,214.269318 
	C108.019760,213.918304 111.686989,214.182388 115.688080,214.182388 
	C115.688080,209.026505 115.688080,204.290909 115.688080,198.704056 
	C111.292053,198.704056 106.867584,198.907227 102.470734,198.645889 
	C98.226578,198.393616 94.771332,196.552475 93.423004,192.134598 
	C92.317520,188.512390 93.523674,185.302811 96.502167,183.382812 
	C98.592796,182.035141 101.369530,181.415817 103.906548,181.175705 
	C107.681725,180.818390 111.515778,181.083069 116.048470,181.083069 
	C116.048470,170.339279 115.955246,159.907318 116.097717,149.478561 
	C116.149391,145.695969 116.000877,141.642365 117.260017,138.192917 
	C121.713211,125.993286 130.219940,120.820274 143.015808,120.383553 
	C154.476013,119.992416 165.960129,120.301231 178.244125,120.301231 
	C178.244125,115.810043 178.130814,111.721054 178.271347,107.640816 
	C178.469345,101.892296 181.496155,98.299644 186.152847,97.989014 
	C192.059052,97.595032 195.519470,101.033577 195.831116,107.891800 
	C196.010254,111.834213 195.863586,115.791435 195.863586,120.272858 
	C200.371399,120.272858 204.515228,120.516304 208.593170,120.105583 
	C209.642441,119.999916 211.139038,117.913696 211.297333,116.600739 
	C211.752762,112.823364 211.350204,108.939468 211.846008,105.171280 
	C212.108444,103.176781 213.537415,101.335762 214.830658,99.606560 
	C215.908966,100.037186 216.623901,100.560196 217.279526,100.494179 
	C224.320618,99.785141 226.763321,101.777252 226.989853,108.719444 
	C227.081665,111.532791 226.641556,114.392235 227.007111,117.156166 
	C227.199783,118.612991 228.553192,121.043800 229.472260,121.086136 
	C233.976379,121.293594 238.510666,120.846024 243.034302,120.629921 
	C243.227539,120.525589 243.420776,120.421265 244.125275,119.922272 
	C244.727188,115.318810 244.817825,111.110001 244.908447,106.901199 
M349.495026,373.109772 
	C353.327637,373.108490 357.161102,373.157990 360.992706,373.095520 
	C369.311218,372.959839 373.075256,369.325439 373.079529,361.077789 
	C373.116089,290.750977 373.172058,220.424026 373.017609,150.097565 
	C372.997345,140.873901 369.461823,137.852554 360.748993,137.867523 
	C288.923859,137.990921 217.098434,137.945618 145.273087,137.948730 
	C136.249054,137.949112 133.019104,141.160812 133.007172,150.272018 
	C132.983826,168.103683 132.985214,185.935394 132.985703,203.767075 
	C132.987106,255.428970 132.984665,307.090881 133.012985,358.752777 
	C133.015320,363.029205 132.710495,367.834930 136.818222,370.359985 
	C139.573990,372.054047 143.249344,372.998138 146.516006,373.005188 
	C213.842743,373.150085 281.169891,373.111908 349.495026,373.109772 
z"/>
<path fill="#758B67" opacity="1.000000" stroke="none" 
	d="
M293.910583,114.579758 
	C293.231201,112.553543 292.218109,110.084427 292.105499,107.574890 
	C291.921387,103.471863 290.585327,100.835014 286.111664,100.636299 
	C282.242279,100.464417 279.428925,103.049988 279.086090,107.424866 
	C278.865814,110.236183 278.884735,113.076942 278.971741,115.899101 
	C279.095154,119.901871 277.038879,121.665955 273.263550,121.853210 
	C272.433533,121.894371 271.603149,121.936172 270.772430,121.953804 
	C260.223022,122.177742 259.206146,121.308502 259.727264,111.102852 
	C259.944275,106.853157 259.790222,102.902977 255.559235,100.782852 
	C251.114929,98.555847 248.517349,102.099525 245.422897,104.787369 
	C245.614700,100.256691 248.300293,97.900574 252.980576,97.990959 
	C257.270050,98.073807 260.827576,99.225677 261.128845,104.500908 
	C261.410431,109.432457 261.854370,114.354729 262.263641,119.767853 
	C266.843933,119.767853 271.557983,119.767853 277.230896,119.767853 
	C277.230896,115.388885 277.031860,110.809929 277.281067,106.255493 
	C277.595581,100.506348 281.011902,97.691284 286.817291,97.945885 
	C291.384094,98.146164 293.945221,101.029549 294.021698,106.146606 
	C294.061401,108.803185 293.998047,111.461296 293.910583,114.579758 
z"/>
<path fill="#758B67" opacity="1.000000" stroke="none" 
	d="
M242.584290,120.488831 
	C238.510666,120.846024 233.976379,121.293594 229.472260,121.086136 
	C228.553192,121.043800 227.199783,118.612991 227.007111,117.156166 
	C226.641556,114.392235 227.081665,111.532791 226.989853,108.719444 
	C226.763321,101.777252 224.320618,99.785141 217.279526,100.494179 
	C216.623901,100.560196 215.908966,100.037186 215.179535,99.554398 
	C224.390198,95.065956 228.423996,100.696144 228.767349,107.248077 
	C228.988632,111.470497 227.894897,117.111305 230.154282,119.478386 
	C232.202805,121.624527 237.993500,120.198700 242.584290,120.488831 
z"/>
<path fill="#758B67" opacity="1.000000" stroke="none" 
	d="
M244.568665,107.169235 
	C244.817825,111.110001 244.727188,115.318810 244.418365,119.771912 
	C244.209763,115.823235 244.219315,111.630257 244.568665,107.169235 
z"/>
<path fill="#000000" opacity="0.000000" stroke="none" 
	d="
M348.995972,373.109924 
	C281.169891,373.111908 213.842743,373.150085 146.516006,373.005188 
	C143.249344,372.998138 139.573990,372.054047 136.818222,370.359985 
	C132.710495,367.834930 133.015320,363.029205 133.012985,358.752777 
	C132.984665,307.090881 132.987106,255.428970 132.985703,203.767075 
	C132.985214,185.935394 132.983826,168.103683 133.007172,150.272018 
	C133.019104,141.160812 136.249054,137.949112 145.273087,137.948730 
	C217.098434,137.945618 288.923859,137.990921 360.748993,137.867523 
	C369.461823,137.852554 372.997345,140.873901 373.017609,150.097565 
	C373.172058,220.424026 373.116089,290.750977 373.079529,361.077789 
	C373.075256,369.325439 369.311218,372.959839 360.992706,373.095520 
	C357.161102,373.157990 353.327637,373.108490 348.995972,373.109924 
M233.499817,360.761047 
	C266.663422,360.775879 299.829498,360.557404 332.989532,360.910156 
	C348.162018,361.071533 360.900818,350.624451 360.838959,332.929871 
	C360.657196,280.936829 360.786774,228.942673 360.792236,176.948944 
	C360.794037,159.927246 348.660736,149.911423 333.930573,149.945892 
	C279.767212,150.072662 225.603333,149.992722 171.439651,149.994110 
	C156.426376,149.994492 145.293747,160.658936 145.254456,175.739700 
	C145.116821,228.562988 145.121094,281.386902 145.207794,334.210358 
	C145.235535,351.107056 157.653870,361.157227 172.511948,360.890167 
	C192.502167,360.530853 212.503281,360.778809 233.499817,360.761047 
z"/>
<path fill="#7B9C61" opacity="1.000000" stroke="none" 
	d="
M232.999771,360.763550 
	C212.503281,360.778809 192.502167,360.530853 172.511948,360.890167 
	C157.653870,361.157227 145.235535,351.107056 145.207794,334.210358 
	C145.121094,281.386902 145.116821,228.562988 145.254456,175.739700 
	C145.293747,160.658936 156.426376,149.994492 171.439651,149.994110 
	C225.603333,149.992722 279.767212,150.072662 333.930573,149.945892 
	C348.660736,149.911423 360.794037,159.927246 360.792236,176.948944 
	C360.786774,228.942673 360.657196,280.936829 360.838959,332.929871 
	C360.900818,350.624451 348.162018,361.071533 332.989532,360.910156 
	C299.829498,360.557404 266.663422,360.775879 232.999771,360.763550 
M288.047119,209.358551 
	C285.128387,207.525009 282.306763,205.510132 279.275452,203.886841 
	C256.542236,191.713150 225.488281,197.603500 210.404312,219.961090 
	C208.333572,223.030365 206.173859,226.039597 203.819260,229.415085 
	C198.588638,222.785416 192.484665,218.332886 184.520096,217.163422 
	C184.152023,217.525024 183.783966,217.886627 183.415894,218.248245 
	C186.967728,223.909714 190.519577,229.571198 194.417801,235.784805 
	C181.798721,233.588837 169.810928,234.744965 158.726852,242.817520 
	C171.499634,250.844894 184.420349,252.639832 198.726929,246.904175 
	C198.726929,249.433273 198.765625,251.203629 198.720459,252.971832 
	C198.483215,262.261688 200.684891,270.930328 204.848724,279.237396 
	C220.361923,310.186981 262.380005,319.187256 288.822083,296.950500 
	C316.318481,273.827118 316.239288,232.864975 288.047119,209.358551 
z"/>
<path fill="#000000" opacity="0.000000" stroke="none" 
	d="
M288.314362,209.603516 
	C316.239288,232.864975 316.318481,273.827118 288.822083,296.950500 
	C262.380005,319.187256 220.361923,310.186981 204.848724,279.237396 
	C200.684891,270.930328 198.483215,262.261688 198.720459,252.971832 
	C198.765625,251.203629 198.726929,249.433273 198.726929,246.904175 
	C184.420349,252.639832 171.499634,250.844894 158.726852,242.817520 
	C169.810928,234.744965 181.798721,233.588837 194.417801,235.784805 
	C190.519577,229.571198 186.967728,223.909714 183.415894,218.248245 
	C183.783966,217.886627 184.152023,217.525024 184.520096,217.163422 
	C192.484665,218.332886 198.588638,222.785416 203.819260,229.415085 
	C206.173859,226.039597 208.333572,223.030365 210.404312,219.961090 
	C225.488281,197.603500 256.542236,191.713150 279.275452,203.886841 
	C282.306763,205.510132 285.128387,207.525009 288.314362,209.603516 
M241.294144,246.127151 
	C231.697006,244.713669 222.078827,243.423935 212.518066,241.796677 
	C210.227173,241.406769 208.257736,240.922363 208.257309,243.842545 
	C208.256760,247.600342 208.103622,251.629517 209.337891,255.067261 
	C213.767899,267.405823 224.414597,272.575989 235.909531,275.837433 
	C250.286270,279.916534 264.945862,279.472412 278.686981,273.658264 
	C292.346558,267.878601 302.726105,259.467499 299.552765,241.210327 
	C296.678650,241.907242 293.850037,242.820496 290.949707,243.254074 
	C281.990356,244.593506 273.035370,246.229141 264.017548,246.826065 
	C256.796295,247.304062 249.485794,246.433929 241.294144,246.127151 
z"/>
<path fill="#799761" opacity="1.000000" stroke="none" 
	d="
M241.754517,246.144623 
	C249.485794,246.433929 256.796295,247.304062 264.017548,246.826065 
	C273.035370,246.229141 281.990356,244.593506 290.949707,243.254074 
	C293.850037,242.820496 296.678650,241.907242 299.552765,241.210327 
	C302.726105,259.467499 292.346558,267.878601 278.686981,273.658264 
	C264.945862,279.472412 250.286270,279.916534 235.909531,275.837433 
	C224.414597,272.575989 213.767899,267.405823 209.337891,255.067261 
	C208.103622,251.629517 208.256760,247.600342 208.257309,243.842545 
	C208.257736,240.922363 210.227173,241.406769 212.518066,241.796677 
	C222.078827,243.423935 231.697006,244.713669 241.754517,246.144623 
M236.479813,256.084961 
	C230.751648,254.401611 225.023468,252.718277 218.823517,250.896286 
	C220.851913,258.085480 225.512833,262.078156 231.785782,263.785980 
	C238.544403,265.626038 244.336288,263.225586 249.521439,257.386108 
	C245.009415,257.034424 241.142334,256.732971 236.479813,256.084961 
M268.962891,264.125153 
	C279.973694,264.606476 288.095764,259.029449 287.984863,252.088165 
	C278.524719,254.125015 268.876190,256.202423 257.778351,258.591858 
	C261.726807,260.662079 264.921661,262.337158 268.962891,264.125153 
z"/>
<path fill="#000000" opacity="0.000000" stroke="none" 
	d="
M236.877533,256.258240 
	C241.142334,256.732971 245.009415,257.034424 249.521439,257.386108 
	C244.336288,263.225586 238.544403,265.626038 231.785782,263.785980 
	C225.512833,262.078156 220.851913,258.085480 218.823517,250.896286 
	C225.023468,252.718277 230.751648,254.401611 236.877533,256.258240 
z"/>
<path fill="#010101" opacity="0.000000" stroke="none" 
	d="
M268.539673,264.068695 
	C264.921661,262.337158 261.726807,260.662079 257.778351,258.591858 
	C268.876190,256.202423 278.524719,254.125015 287.984863,252.088165 
	C288.095764,259.029449 279.973694,264.606476 268.539673,264.068695 
z"/>
</svg>